<svg version="1.1" viewBox="0.0 0.0 67.1994750656168 480.0" fill="none" stroke="none" stroke-linecap="square" stroke-miterlimit="10" xmlns:xlink="http://www.w3.org/1999/xlink" xmlns="http://www.w3.org/2000/svg"><clipPath id="p.0"><path d="m0 0l67.19948 0l0 480.0l-67.19948 0l0 -480.0z" clip-rule="nonzero"/></clipPath><g clip-path="url(#p.0)"><path fill="#000000" fill-opacity="0.0" d="m0 0l67.19948 0l0 480.0l-67.19948 0z" fill-rule="evenodd"/><path fill="#000000" fill-opacity="0.0" d="m0.2908685 479.9992l0 -480.0l44.535435 0l0 480.0z" fill-rule="evenodd"/><path fill="#403d39" d="m32.730865 343.98965l-22.687498 0l0 -3.15625l9.90625 0l0.359375 0.546875q-1.0625 -0.3125 -1.96875 -1.1875q-0.90625 -0.890625 -1.46875 -2.109375q-0.578125 -1.234375 -0.578125 -2.53125q0 -1.84375 0.734375 -3.0625q0.71875 -1.21875 2.1875 -1.828125q1.46875 -0.625 3.703125 -0.625l9.812498 0l0 3.15625l-9.593748 0q-1.375 0 -2.28125 0.375q-0.90625 0.359375 -1.3125 1.125q-0.421875 0.765625 -0.359375 1.90625q0 0.921875 0.296875 1.6875q0.28125 0.765625 0.8125 1.328125q0.515625 0.5625 1.203125 0.890625q0.6875 0.328125 1.484375 0.328125l9.749998 0l0 1.5625q0 0.390625 0 0.796875q0 0.390625 0 0.796875zm0 -18.77179l-16.093748 0l0 -3.15625l16.093748 0l0 3.15625zm-19.656248 -1.53125q0 1.015625 -0.515625 1.578125q-0.515625 0.546875 -1.46875 0.546875q-0.890625 0 -1.4375 -0.5625q-0.5625 -0.578125 -0.5625 -1.5625q0 -1.0 0.53125 -1.546875q0.515625 -0.5625 1.46875 -0.5625q0.890625 0 1.4375 0.5625q0.546875 0.5625 0.546875 1.546875zm26.703123 -13.663086q0 1.71875 -0.53125 3.421875q-0.53125 1.6875 -1.390625 2.734375l-2.453125 -1.171875q0.453125 -0.609375 0.796875 -1.4375q0.359375 -0.828125 0.5625 -1.734375q0.203125 -0.921875 0.203125 -1.8125q0 -1.6875 -0.5625 -2.8125q-0.546875 -1.140625 -1.625 -1.71875q-1.0625 -0.59375 -2.65625 -0.59375l-3.093748 0l0.203125 -0.34375q0.953125 0.15625 1.828125 1.0q0.875 0.84375 1.4374981 2.109375q0.546875 1.25 0.546875 2.5625q0 2.3125 -1.0937481 4.109375q-1.09375 1.78125 -2.96875 2.828125q-1.890625 1.046875 -4.3125 1.046875q-2.421875 0 -4.296875 -1.03125q-1.890625 -1.03125 -2.984375 -2.8125q-1.09375 -1.796875 -1.09375 -4.046875q0 -0.921875 0.234375 -1.765625q0.234375 -0.859375 0.65625 -1.59375q0.40625 -0.75 0.90625 -1.328125q0.484375 -0.578125 1.03125 -0.9375q0.546875 -0.375 1.046875 -0.46875l0.234375 0.671875l-3.765625 0l0 -3.15625l15.109375 0q1.9374981 0 3.421873 0.578125q1.484375 0.5625 2.515625 1.640625q1.03125 1.0625 1.5625 2.59375q0.53125 1.53125 0.53125 3.46875zm-9.656248 -0.125q0 -1.5 -0.703125 -2.65625q-0.703125 -1.171875 -1.921875 -1.8125q-1.234375 -0.65625 -2.828125 -0.65625q-1.59375 0 -2.828125 0.671875q-1.25 0.65625 -1.953125 1.8125q-0.703125 1.140625 -0.703125 2.640625q0 1.46875 0.71875 2.625q0.71875 1.140625 1.96875 1.8125q1.234375 0.65625 2.796875 0.65625q1.5625 0 2.8125 -0.65625q1.234375 -0.671875 1.9375 -1.8125q0.703125 -1.15625 0.703125 -2.625zm2.609373 -12.567841l-22.687498 0l0 -3.15625l9.90625 0l0.359375 0.546875q-1.0625 -0.3125 -1.96875 -1.1875q-0.90625 -0.890625 -1.46875 -2.109375q-0.578125 -1.234375 -0.578125 -2.53125q0 -1.84375 0.734375 -3.0625q0.71875 -1.21875 2.1875 -1.828125q1.46875 -0.625 3.703125 -0.625l9.812498 0l0 3.15625l-9.593748 0q-1.375 0 -2.28125 0.375q-0.90625 0.359375 -1.3125 1.125q-0.421875 0.765625 -0.359375 1.90625q0 0.921875 0.296875 1.6875q0.28125 0.765625 0.8125 1.328125q0.515625 0.5625 1.203125 0.890625q0.6875 0.328125 1.484375 0.328125l9.749998 0l0 1.5625q0 0.390625 0 0.796875q0 0.390625 0 0.796875zm0.3125 -25.756134q0 2.484375 -1.0624981 4.40625q-1.0625 1.90625 -2.890625 3.0q-1.84375 1.09375 -4.234375 1.09375q-1.90625 0 -3.46875 -0.609375q-1.5625 -0.625 -2.703125 -1.703125q-1.15625 -1.09375 -1.78125 -2.609375q-0.640625 -1.53125 -0.640625 -3.296875q0 -1.5625 0.609375 -2.90625q0.59375 -1.359375 1.640625 -2.359375q1.03125 -1.0 2.46875 -1.53125q1.421875 -0.53125 3.109375 -0.5l1.34375 0.03125l0 13.140625l-2.515625 0.71875l0 -11.140625l0.53125 0.46875l-0.75 0q-1.0 0.09375 -1.796875 0.671875q-0.796875 0.578125 -1.25 1.46875q-0.46875 0.890625 -0.46875 1.9375q0 1.65625 0.625 2.796875q0.625 1.125 1.84375 1.703125q1.203125 0.578125 2.984375 0.578125q1.6875 0 2.9375 -0.703125q1.234375 -0.703125 1.90625 -1.984375q0.671875 -1.296875 0.671875 -2.984375q0 -1.1875 -0.390625 -2.21875q-0.40625 -1.03125 -1.453125 -2.21875l2.25 -1.59375q0.734375 0.734375 1.28125 1.796875q0.5468731 1.046875 0.8749981 2.234375q0.328125 1.171875 0.328125 2.3125zm-0.3125 -10.449005l-16.093748 0l0 -3.1875l5.0625 0l-1.234375 0.296875q-1.15625 -0.328125 -2.109375 -1.140625q-0.953125 -0.8125 -1.5 -1.8749847q-0.5625 -1.0625 -0.5625 -2.1875q0 -0.53125 0.09375 -1.0q0.09375 -0.46875 0.21875 -0.75l3.4375 0.828125q-0.15625 0.359375 -0.265625 0.8125q-0.109375 0.4375 -0.109375 0.875q0 0.828125 0.328125 1.578125q0.3125 0.74998474 0.890625 1.3281097q0.5625 0.5625 1.3125 0.90625q0.75 0.328125 1.640625 0.328125l8.890623 0l0 3.1875z" fill-rule="nonzero"/><path fill="#403d39" d="m32.730865 239.93729l-16.281248 0l0 -4.90625l16.281248 0l0 4.90625zm-19.499998 -2.453125q0 1.375 -0.65625 2.15625q-0.65625 0.78125 -1.890625 0.78125q-1.09375 0 -1.796875 -0.796875q-0.71875 -0.796875 -0.71875 -2.140625q0 -1.375 0.671875 -2.140625q0.65625 -0.765625 1.84375 -0.765625q1.140625 0 1.84375 0.78125q0.703125 0.78125 0.703125 2.125zm19.499998 -7.013748l-16.281248 0l0 -4.671875l2.953125 -0.140625l0.015625 0.640625q-0.796875 -0.375 -1.40625 -0.9375q-0.609375 -0.5625 -1.015625 -1.28125q-0.421875 -0.734375 -0.625 -1.515625q-0.21875 -0.78125 -0.21875 -1.578125q0 -1.1875 0.375 -2.171875q0.359375 -0.984375 1.171875 -1.71875q0.8125 -0.734375 2.1875 -1.15625l-0.0625 0.765625l-0.484375 -0.25q-0.734375 -0.390625 -1.328125 -1.015625q-0.609375 -0.640625 -1.015625 -1.40625q-0.421875 -0.765625 -0.625 -1.59375q-0.21875 -0.828125 -0.21875 -1.59375q0 -1.9375 0.75 -3.21875q0.75 -1.28125 2.25 -1.9375q1.5 -0.671875 3.640625 -0.671875l9.937498 0l0 4.9375l-9.531248 0q-0.984375 0 -1.625 0.28125q-0.640625 0.265625 -0.96875 0.8125q-0.328125 0.53125 -0.328125 1.328125q0 0.640625 0.21875 1.1875q0.21875 0.53125 0.59375 0.921875q0.359375 0.375 0.859375 0.59375q0.484375 0.203125 1.09375 0.203125l9.687498 0l0 4.9375l-9.562498 0q-0.921875 0 -1.5625 0.28125q-0.640625 0.28125 -0.984375 0.828125q-0.34375 0.546875 -0.34375 1.28125q0 0.65625 0.21875 1.1875q0.21875 0.53125 0.59375 0.921875q0.359375 0.375 0.859375 0.59375q0.484375 0.21875 1.0625 0.21875l9.718748 0l0 4.9375zm6.75 -29.522644l-23.031248 0l0 -4.671875l3.65625 -0.171875l-0.28125 0.921875q-1.015625 -0.21875 -1.84375 -1.046875q-0.828125 -0.828125 -1.328125 -2.09375q-0.5 -1.28125 -0.5 -2.6875q0 -2.09375 1.09375 -3.71875q1.078125 -1.625 2.96875 -2.546875q1.875 -0.9375 4.359375 -0.9375q2.453125 0 4.359375 0.9375q1.890625 0.921875 2.984375 2.5625q1.0937481 1.640625 1.0937481 3.765625q0 1.375 -0.515625 2.640625q-0.5312481 1.25 -1.4218731 2.109375q-0.890625 0.859375 -1.9375 1.125l-0.421875 -1.125l10.765623 0l0 4.9375zm-10.609373 -8.5q0 -1.09375 -0.53125 -1.921875q-0.546875 -0.828125 -1.5 -1.28125q-0.953125 -0.46875 -2.265625 -0.46875q-1.28125 0 -2.25 0.46875q-0.96875 0.453125 -1.5 1.265625q-0.546875 0.8125 -0.546875 1.9375q0 1.140625 0.53125 1.96875q0.515625 0.828125 1.5 1.296875q0.984375 0.453125 2.265625 0.453125q1.3125 0 2.265625 -0.453125q0.953125 -0.46875 1.5 -1.296875q0.53125 -0.828125 0.53125 -1.96875zm4.140623 -17.71814q0 2.0625 -1.0937481 3.671875q-1.09375 1.609375 -3.0 2.5625q-1.921875 0.9375 -4.34375 0.9375q-2.484375 0 -4.375 -0.9375q-1.90625 -0.953125 -2.984375 -2.609375q-1.09375 -1.65625 -1.09375 -3.78125q0 -1.15625 0.34375 -2.125q0.328125 -0.96875 0.921875 -1.703125q0.59375 -0.734375 1.375 -1.25q0.78125 -0.53125 1.671875 -0.765625l-0.125 1.0l-3.859375 0l0 -4.875l16.281248 0l0 4.96875l-3.921873 0l-0.03125 -1.09375q0.859375 0.234375 1.625 0.796875q0.765625 0.546875 1.34375 1.34375q0.5781231 0.796875 0.9218731 1.78125q0.34375 0.984375 0.34375 2.078125zm-4.140623 -1.34375q0 -1.140625 -0.515625 -1.96875q-0.53125 -0.828125 -1.5 -1.28125q-0.96875 -0.46875 -2.28125 -0.46875q-1.3125 0 -2.28125 0.46875q-0.96875 0.453125 -1.5 1.28125q-0.546875 0.828125 -0.546875 1.96875q0 1.09375 0.546875 1.90625q0.53125 0.8125 1.5 1.28125q0.96875 0.453125 2.28125 0.453125q1.3125 0 2.28125 -0.453125q0.96875 -0.46875 1.5 -1.28125q0.515625 -0.8125 0.515625 -1.90625zm4.171873 -19.983795q0 2.359375 -1.1093731 4.234375q-1.109375 1.859375 -3.015625 2.953125q-1.921875 1.078125 -4.34375 1.078125q-2.421875 0 -4.328125 -1.078125q-1.921875 -1.09375 -3.015625 -2.953125q-1.109375 -1.875 -1.109375 -4.234375q0 -2.1875 0.765625 -4.0q0.765625 -1.828125 2.140625 -2.90625l3.1875 2.671875q-0.484375 0.421875 -0.90625 1.015625q-0.4375 0.578125 -0.6875 1.28125q-0.25 0.703125 -0.25 1.46875q0 1.171875 0.546875 2.0625q0.53125 0.875 1.484375 1.375q0.953125 0.484375 2.171875 0.484375q1.171875 0 2.125 -0.5q0.9375 -0.5 1.5 -1.390625q0.546875 -0.890625 0.546875 -2.03125q0 -0.796875 -0.203125 -1.46875q-0.203125 -0.671875 -0.59375 -1.234375q-0.40625 -0.578125 -0.984375 -1.0625l3.21875 -2.640625q1.328125 1.046875 2.093748 2.90625q0.765625 1.84375 0.765625 3.96875zm-0.3125 -10.926453l-20.390623 0l0 -4.90625l20.390623 0l0 4.90625zm-11.984373 2.890625l-4.296875 0l0 -10.953125l4.296875 0l0 10.953125z" fill-rule="nonzero"/><path fill="#000000" fill-opacity="0.0" d="m57.536175 479.763l0 -479.52756" fill-rule="evenodd"/><path stroke="#403d39" stroke-width="3.0" stroke-linejoin="round" stroke-linecap="butt" d="m57.536175 479.763l0 -461.52756" fill-rule="evenodd"/><path fill="#403d39" stroke="#403d39" stroke-width="3.0" stroke-linecap="butt" d="m62.491375 18.235441l-4.9552 -13.614292l-4.9551964 13.614292z" fill-rule="evenodd"/></g></svg>