<svg version="1.1" viewBox="0.0 0.0 480.0 67.1994750656168" fill="none" stroke="none" stroke-linecap="square" stroke-miterlimit="10" xmlns:xlink="http://www.w3.org/1999/xlink" xmlns="http://www.w3.org/2000/svg"><clipPath id="p.0"><path d="m0 0l480.0 0l0 67.19948l-480.0 0l0 -67.19948z" clip-rule="nonzero"/></clipPath><g clip-path="url(#p.0)"><path fill="#000000" fill-opacity="0.0" d="m0 0l480.0 0l0 67.19948l-480.0 0z" fill-rule="evenodd"/><path fill="#000000" fill-opacity="0.0" d="m-7.874016E-4 -0.0012328085l480.0 0l0 44.53543l-480.0 0z" fill-rule="evenodd"/><path fill="#403d39" d="m175.89392 32.438766l0 -22.6875l3.15625 0l0 22.6875l-3.15625 0zm14.841202 0.3125q-2.484375 0 -4.40625 -1.0625q-1.90625 -1.0625 -3.0 -2.890625q-1.09375 -1.84375 -1.09375 -4.234375q0 -1.90625 0.609375 -3.46875q0.625 -1.5625 1.703125 -2.703125q1.09375 -1.15625 2.609375 -1.78125q1.53125 -0.64062595 3.296875 -0.64062595q1.5625 0 2.90625 0.60937595q1.359375 0.59375 2.359375 1.640625q1.0 1.03125 1.53125 2.46875q0.53125 1.421875 0.5 3.109375l-0.03125 1.34375l-13.140625 0l-0.71875 -2.515625l11.140625 0l-0.46875 0.53125l0 -0.75q-0.09375 -1.0 -0.671875 -1.796875q-0.578125 -0.796875 -1.46875 -1.25q-0.890625 -0.46875 -1.9375 -0.46875q-1.65625 0 -2.796875 0.625q-1.125 0.625 -1.703125 1.84375q-0.578125 1.203125 -0.578125 2.984375q0 1.6875 0.703125 2.9375q0.703125 1.234375 1.984375 1.90625q1.296875 0.671875 2.984375 0.671875q1.1875 0 2.21875 -0.390625q1.03125 -0.40625 2.21875 -1.453125l1.59375 2.25q-0.734375 0.734375 -1.796875 1.28125q-1.046875 0.546875 -2.234375 0.875q-1.171875 0.328125 -2.3125 0.328125zm15.82399 0q-2.03125 0 -3.65625 -0.703125q-1.625 -0.71875 -2.703125 -2.09375l2.15625 -1.84375q0.921875 1.078125 2.0 1.5625q1.09375 0.46875 2.46875 0.46875q0.5625 0 1.03125 -0.140625q0.46875 -0.140625 0.828125 -0.40625q0.359375 -0.28125 0.53125 -0.65625q0.1875 -0.390625 0.1875 -0.859375q0 -0.796875 -0.578125 -1.28125q-0.3125 -0.21875 -0.96875 -0.46875q-0.65625 -0.265625 -1.703125 -0.546875q-1.78125 -0.453125 -2.921875 -1.03125q-1.125 -0.59375 -1.734375 -1.328125q-0.46875 -0.578125 -0.6875 -1.265625q-0.203125 -0.6875 -0.203125 -1.515625q0 -1.015625 0.4375 -1.859375q0.453125 -0.84375 1.234375 -1.46875q0.78125 -0.625 1.828125 -0.96875q1.0625 -0.34375 2.265625 -0.34375q1.125 0 2.25 0.3125q1.125 0.3125 2.0625 0.890625q0.953125 0.578125 1.609375 1.375l-1.8125 2.0q-0.59375 -0.59375 -1.28125 -1.03125q-0.6875 -0.4375 -1.390625 -0.6875q-0.703125 -0.25 -1.28125 -0.25q-0.65625 0 -1.171875 0.125q-0.515625 0.125 -0.875 0.375q-0.34375 0.234375 -0.53125 0.609375q-0.1875 0.359375 -0.1875 0.828125q0.03125 0.390625 0.203125 0.75q0.171875 0.34375 0.46875 0.59375q0.34375 0.25 1.015625 0.53125q0.671875 0.265625 1.71875 0.515625q1.53125 0.390625 2.515625 0.875q1.0 0.46875 1.59375 1.078125q0.609375 0.59375 0.84375 1.359375q0.25 0.765625 0.25 1.71875q0 1.375 -0.78125 2.46875q-0.78125 1.078125 -2.09375 1.703125q-1.3125 0.609375 -2.9375 0.609375zm14.684387 0q-2.03125 0 -3.65625 -0.703125q-1.625 -0.71875 -2.703125 -2.09375l2.15625 -1.84375q0.921875 1.078125 2.0 1.5625q1.09375 0.46875 2.46875 0.46875q0.5625 0 1.03125 -0.140625q0.46875 -0.140625 0.828125 -0.40625q0.359375 -0.28125 0.53125 -0.65625q0.1875 -0.390625 0.1875 -0.859375q0 -0.796875 -0.578125 -1.28125q-0.3125 -0.21875 -0.96875 -0.46875q-0.65625 -0.265625 -1.703125 -0.546875q-1.78125 -0.453125 -2.921875 -1.03125q-1.125 -0.59375 -1.734375 -1.328125q-0.46875 -0.578125 -0.6875 -1.265625q-0.203125 -0.6875 -0.203125 -1.515625q0 -1.015625 0.4375 -1.859375q0.453125 -0.84375 1.234375 -1.46875q0.78125 -0.625 1.828125 -0.96875q1.0625 -0.34375 2.265625 -0.34375q1.125 0 2.25 0.3125q1.125 0.3125 2.0625 0.890625q0.953125 0.578125 1.609375 1.375l-1.8125 2.0q-0.59375 -0.59375 -1.28125 -1.03125q-0.6875 -0.4375 -1.390625 -0.6875q-0.703125 -0.25 -1.28125 -0.25q-0.65625 0 -1.171875 0.125q-0.515625 0.125 -0.875 0.375q-0.34375 0.234375 -0.53125 0.609375q-0.1875 0.359375 -0.1875 0.828125q0.03125 0.390625 0.203125 0.75q0.171875 0.34375 0.46875 0.59375q0.34375 0.25 1.015625 0.53125q0.671875 0.265625 1.71875 0.515625q1.53125 0.390625 2.515625 0.875q1.0 0.46875 1.59375 1.078125q0.609375 0.59375 0.84375 1.359375q0.25 0.765625 0.25 1.71875q0 1.375 -0.78125 2.46875q-0.78125 1.078125 -2.09375 1.703125q-1.3125 0.609375 -2.9375 0.609375z" fill-rule="nonzero"/><path fill="#403d39" d="m240.46478 32.438766l0 -20.390625l4.90625 0l0 20.390625l-4.90625 0zm-2.890625 -11.984375l0 -4.296875l10.953125 0l0 4.296875l-10.953125 0zm14.013718 11.984375l0 -16.28125l4.9062653 0l0 16.28125l-4.9062653 0zm2.453125 -19.5q-1.375 0 -2.15625 -0.65625q-0.78125 -0.65625 -0.78125 -1.890625q0 -1.09375 0.796875 -1.796875q0.796875 -0.7187495 2.140625 -0.7187495q1.375 0 2.1406403 0.6718745q0.765625 0.65625 0.765625 1.84375q0 1.140625 -0.78125 1.84375q-0.78126526 0.703125 -2.1250153 0.703125zm7.013748 19.5l0 -16.28125l4.671875 0l0.140625 2.953125l-0.640625 0.015625q0.375 -0.796875 0.9375 -1.40625q0.5625 -0.609375 1.28125 -1.015625q0.734375 -0.421875 1.515625 -0.625q0.78125 -0.21875095 1.578125 -0.21875095q1.1875 0 2.171875 0.37500095q0.984375 0.359375 1.71875 1.171875q0.734375 0.8125 1.15625 2.1875l-0.765625 -0.0625l0.25 -0.484375q0.390625 -0.734375 1.015625 -1.328125q0.640625 -0.609375 1.40625 -1.015625q0.765625 -0.421875 1.59375 -0.625q0.828125 -0.21875095 1.59375 -0.21875095q1.9375 0 3.21875 0.75000095q1.28125 0.75 1.9375 2.25q0.671875 1.5 0.671875 3.640625l0 9.9375l-4.9375 0l0 -9.53125q0 -0.984375 -0.28125 -1.625q-0.265625 -0.640625 -0.8125 -0.96875q-0.53125 -0.328125 -1.328125 -0.328125q-0.640625 0 -1.1875 0.21875q-0.53125 0.21875 -0.921875 0.59375q-0.375 0.359375 -0.59375 0.859375q-0.203125 0.484375 -0.203125 1.09375l0 9.6875l-4.9375 0l0 -9.5625q0 -0.921875 -0.28125 -1.5625q-0.28125 -0.640625 -0.828125 -0.984375q-0.546875 -0.34375 -1.28125 -0.34375q-0.65625 0 -1.1875 0.21875q-0.53125 0.21875 -0.921875 0.59375q-0.375 0.359375 -0.59375 0.859375q-0.21875 0.484375 -0.21875 1.0625l0 9.71875l-4.9375 0zm37.28827 0.3125q-2.703125 0 -4.703125 -1.09375q-1.984375 -1.09375 -3.09375 -2.96875q-1.09375 -1.890625 -1.09375 -4.3125q0 -1.875 0.609375 -3.4375q0.609375 -1.5625 1.703125 -2.703125q1.109375 -1.15625 2.625 -1.78125q1.53125 -0.62500095 3.328125 -0.62500095q1.71875 0 3.140625 0.60937595q1.4375 0.609375 2.46875 1.71875q1.046875 1.09375 1.59375 2.609375q0.5625 1.5 0.5 3.265625l-0.03125 1.328125l-12.96875 0l-0.703125 -2.765625l9.6875 0l-0.515625 0.578125l0 -0.609375q-0.0625 -0.765625 -0.484375 -1.359375q-0.40625 -0.59375 -1.09375 -0.921875q-0.671875 -0.34375 -1.53125 -0.34375q-1.1875 0 -2.03125 0.46875q-0.84375 0.46875 -1.28125 1.375q-0.421875 0.90625 -0.421875 2.21875q0 1.359375 0.5625 2.359375q0.578125 0.984375 1.65625 1.546875q1.09375 0.546875 2.59375 0.546875q1.046875 0 1.859375 -0.296875q0.8125 -0.3125 1.765625 -1.046875l2.296875 3.25q-0.953125 0.828125 -2.03125 1.34375q-1.0625 0.515625 -2.1875 0.78125q-1.125 0.265625 -2.21875 0.265625z" fill-rule="nonzero"/><path fill="#000000" fill-opacity="0.0" d="m0.23543307 55.916027l479.52756 0" fill-rule="evenodd"/><path stroke="#403d39" stroke-width="3.0" stroke-linejoin="round" stroke-linecap="butt" d="m18.235432 55.916027l461.52756 0" fill-rule="evenodd"/><path fill="#403d39" stroke="#403d39" stroke-width="3.0" stroke-linecap="butt" d="m18.235432 50.960827l-13.614292 4.9552l13.614292 4.9551964z" fill-rule="evenodd"/></g></svg>