<svg version="1.1" viewBox="0.0 0.0 67.1994750656168 67.1994750656168" fill="none" stroke="none" stroke-linecap="square" stroke-miterlimit="10" xmlns:xlink="http://www.w3.org/1999/xlink" xmlns="http://www.w3.org/2000/svg"><clipPath id="p.0"><path d="m0 0l67.19948 0l0 67.19948l-67.19948 0l0 -67.19948z" clip-rule="nonzero"/></clipPath><g clip-path="url(#p.0)"><path fill="#000000" fill-opacity="0.0" d="m0 0l67.19948 0l0 67.19948l-67.19948 0z" fill-rule="evenodd"/><path fill="#000000" fill-opacity="0.0" d="m-10.441055 -4.541578l67.2126 0l0 43.559055l-67.2126 0z" fill-rule="evenodd"/><path fill="#403d39" d="m6.3385143 12.981921q-1.234375 0 -2.21875 -0.421875q-0.98437476 -0.4375 -1.6406248 -1.28125l1.296875 -1.109375q0.56249976 0.640625 1.2187498 0.9375q0.671875 0.28125 1.515625 0.28125q0.328125 0 0.609375 -0.078125q0.296875 -0.078125 0.515625 -0.25q0.21875 -0.171875 0.328125 -0.40625q0.109375 -0.234375 0.109375 -0.515625q0 -0.484375 -0.359375 -0.78125q-0.1875 -0.125 -0.59375 -0.28125q-0.390625 -0.15625 -1.03125 -0.328125q-1.078125 -0.28125 -1.765625 -0.625q-0.68749976 -0.35937548 -1.0624998 -0.8125005q-0.28125 -0.359375 -0.421875 -0.765625q-0.125 -0.421875 -0.125 -0.9375q0 -0.609375 0.265625 -1.125q0.28125 -0.51562476 0.75 -0.89062476q0.48437476 -0.390625 1.1249998 -0.59375q0.640625 -0.203125 1.375 -0.203125q0.6875 0 1.359375 0.1875q0.6875 0.1875 1.265625 0.546875q0.578125 0.34375 0.96875 0.82812476l-1.09375 1.21875q-0.359375 -0.359375 -0.78125 -0.625q-0.421875 -0.265625 -0.859375 -0.40625q-0.421875 -0.15625 -0.765625 -0.15625q-0.390625 0 -0.71875 0.078125q-0.3125 0.0625 -0.53125 0.21875q-0.203125 0.140625 -0.328125 0.375q-0.109375 0.21875 -0.109375 0.5q0.015625 0.234375 0.125 0.453125q0.109375 0.21875 0.296875 0.359375q0.203125 0.15625 0.609375 0.328125q0.40625 0.15625 1.046875 0.3125q0.921875 0.234375 1.53125 0.53125q0.609375 0.28125 0.96875 0.6562505q0.375 0.359375 0.515625 0.828125q0.15625 0.46875 0.15625 1.046875q0 0.828125 -0.484375 1.5q-0.46875 0.65625 -1.28125 1.03125q-0.796875 0.375 -1.78125 0.375zm6.8894653 -0.1875l0 -12.296875l1.921875 0l0 12.296875l-1.921875 0zm-2.046875 -7.9218755l0 -1.8749998l6.234375 0l0 1.8749998l-6.234375 0zm11.664415 8.109375q-1.203125 0 -2.203127 -0.671875q-1.0 -0.671875 -1.609375 -1.828125q-0.59375 -1.15625 -0.59375 -2.6093755q0 -1.484375 0.609375 -2.625q0.609375 -1.140625 1.640625 -1.7968748q1.0468769 -0.65625 2.328127 -0.65625q0.765625 0 1.390625 0.234375q0.640625 0.21875 1.109375 0.625q0.484375 0.39062476 0.78125 0.92187476q0.3125 0.515625 0.390625 1.109375l-0.421875 -0.140625l0 -2.5468748l1.9375 0l0 9.796875l-1.9375 0l0 -2.328125l0.4375 -0.140625q-0.109375 0.515625 -0.453125 1.0q-0.34375 0.46875 -0.875 0.84375q-0.53125 0.359375 -1.171875 0.59375q-0.640625 0.21875 -1.359375 0.21875zm0.5 -1.765625q0.890625 0 1.546875 -0.421875q0.671875 -0.4375 1.046875 -1.1875q0.390625 -0.765625 0.390625 -1.7343755q0 -0.953125 -0.390625 -1.703125q-0.375 -0.75 -1.046875 -1.171875q-0.65625 -0.4375 -1.546875 -0.4375q-0.859375 0 -1.515625 0.4375q-0.6562519 0.421875 -1.0468769 1.171875q-0.375 0.75 -0.375 1.703125q0 0.9687505 0.375 1.7343755q0.390625 0.75 1.0468769 1.1875q0.65625 0.421875 1.515625 0.421875zm7.5437775 1.578125l0 -9.796875l1.9375 0l0 3.0781248l-0.1875 -0.75q0.203125 -0.703125 0.703125 -1.28125q0.5 -0.57812476 1.140625 -0.90624976q0.640625 -0.34375 1.328125 -0.34375q0.3125 0 0.59375 0.0625q0.296875 0.046875 0.46875 0.125l-0.5 2.0937498q-0.21875 -0.09375 -0.5 -0.15625q-0.265625 -0.078125 -0.53125 -0.078125q-0.5 0 -0.953125 0.203125q-0.453125 0.1875 -0.8125 0.546875q-0.34375 0.34375 -0.546875 0.796875q-0.203125 0.453125 -0.203125 1.0l0 5.4062505l-1.9375 0zm9.11055 0l0 -12.296875l1.921875 0l0 12.296875l-1.921875 0zm-2.046875 -7.9218755l0 -1.8749998l6.234375 0l0 1.8749998l-6.234375 0z" fill-rule="nonzero"/><path fill="#403d39" d="m3.5984633 30.714418l0 -13.8125l2.9218748 0l0 5.921875l-0.59375 0.21875q0.203125 -0.671875 0.734375 -1.21875q0.53125 -0.546875 1.28125 -0.875q0.75 -0.34375 1.5625 -0.34375q1.125 0 1.890625 0.453125q0.765625 0.453125 1.15625 1.359375q0.390625 0.90625 0.390625 2.21875l0 6.078125l-3.0 0l0 -5.84375q0 -0.59375 -0.171875 -0.984375q-0.171875 -0.390625 -0.515625 -0.578125q-0.34375 -0.203125 -0.84375 -0.1875q-0.390625 0 -0.734375 0.125q-0.328125 0.125 -0.578125 0.359375q-0.234375 0.21875 -0.375 0.53125q-0.140625 0.296875 -0.140625 0.640625l0 5.9375l-1.484375 0q-0.515625 0 -0.890625 0q-0.37499976 0 -0.60937476 0zm16.565475 0.1875q-1.640625 0 -2.859375 -0.65625q-1.203125 -0.671875 -1.875 -1.8125q-0.671875 -1.15625 -0.671875 -2.625q0 -1.140625 0.359375 -2.09375q0.375 -0.953125 1.046875 -1.640625q0.671875 -0.703125 1.59375 -1.078125q0.9375 -0.390625 2.03125 -0.390625q1.046875 0 1.9062519 0.375q0.875 0.375 1.5 1.046875q0.640625 0.671875 0.96875 1.59375q0.34375 0.90625 0.3125 1.984375l-0.03125 0.796875l-7.890627 0l-0.421875 -1.671875l5.890627 0l-0.3125 0.34375l0 -0.359375q-0.03125 -0.46875 -0.2968769 -0.828125q-0.25 -0.375 -0.65625 -0.578125q-0.40625 -0.203125 -0.9375 -0.203125q-0.71875 0 -1.234375 0.296875q-0.515625 0.28125 -0.78125 0.828125q-0.25 0.546875 -0.25 1.359375q0 0.8125 0.34375 1.421875q0.34375 0.609375 1.0 0.953125q0.671875 0.328125 1.578125 0.328125q0.640625 0 1.1250019 -0.1875q0.5 -0.1875 1.078125 -0.640625l1.40625 1.984375q-0.578125 0.5 -1.234375 0.828125q-0.65625 0.3125 -1.3437519 0.46875q-0.671875 0.15625 -1.34375 0.15625zm6.2138233 -0.1875l0 -9.90625l2.828125 0l0.140625 3.234375l-0.5625 -0.625q0.21875 -0.796875 0.734375 -1.421875q0.515625 -0.640625 1.203125 -1.015625q0.6875 -0.375 1.46875 -0.375q0.34375 0 0.625 0.0625q0.296875 0.046875 0.53125 0.125l-0.8125 3.296875q-0.203125 -0.125 -0.5625 -0.203125q-0.34375 -0.09375 -0.703125 -0.09375q-0.421875 0 -0.78125 0.140625q-0.34375 0.140625 -0.59375 0.40625q-0.234375 0.25 -0.375 0.609375q-0.140625 0.359375 -0.140625 0.796875l0 4.96875l-3.0 0zm12.796692 0.1875q-1.640625 0 -2.859375 -0.65625q-1.203125 -0.671875 -1.875 -1.8125q-0.671875 -1.15625 -0.671875 -2.625q0 -1.140625 0.359375 -2.09375q0.375 -0.953125 1.046875 -1.640625q0.671875 -0.703125 1.59375 -1.078125q0.9375 -0.390625 2.03125 -0.390625q1.046875 0 1.90625 0.375q0.875 0.375 1.5 1.046875q0.640625 0.671875 0.96875 1.59375q0.34375 0.90625 0.3125 1.984375l-0.03125 0.796875l-7.890625 0l-0.421875 -1.671875l5.890625 0l-0.3125 0.34375l0 -0.359375q-0.03125 -0.46875 -0.296875 -0.828125q-0.25 -0.375 -0.65625 -0.578125q-0.40625 -0.203125 -0.9375 -0.203125q-0.71875 0 -1.234375 0.296875q-0.515625 0.28125 -0.78125 0.828125q-0.25 0.546875 -0.25 1.359375q0 0.8125 0.34375 1.421875q0.34375 0.609375 1.0 0.953125q0.671875 0.328125 1.578125 0.328125q0.640625 0 1.125 -0.1875q0.5 -0.1875 1.078125 -0.640625l1.40625 1.984375q-0.578125 0.5 -1.234375 0.828125q-0.65625 0.3125 -1.34375 0.46875q-0.671875 0.15625 -1.34375 0.15625z" fill-rule="nonzero"/><path fill="#000000" fill-opacity="0.0" d="m21.795223 34.94485c7.804737 9.903484 19.694988 16.394707 31.469051 20.422592" fill-rule="evenodd"/><path stroke="#403d39" stroke-width="2.0" stroke-linejoin="round" stroke-linecap="butt" d="m21.795225 34.94485c3.9023685 4.951744 8.826115 9.050423 14.246027 12.414646c1.3549767 0.841053 2.7409668 1.6362114 4.149761 2.3873138c0.35219574 0.18777847 0.7058182 0.37280273 1.0607414 0.5550995c0.17745972 0.09114838 0.35524368 0.18161392 0.53333664 0.27140427l0.394619 0.1971283" fill-rule="evenodd"/><path fill="#403d39" stroke="#403d39" stroke-width="2.0" stroke-linecap="butt" d="m40.91421 53.8219l9.649307 0.4254837l-7.118305 -6.5283966z" fill-rule="evenodd"/></g></svg>